<?xml version="1.0" standalone="no"?><!DOCTYPE svg PUBLIC "-//W3C//DTD SVG 1.1//EN" "http://www.w3.org/Graphics/SVG/1.1/DTD/svg11.dtd"><svg t="1675684722172" class="icon" viewBox="0 0 1024 1024" version="1.1" xmlns="http://www.w3.org/2000/svg" p-id="1440" xmlns:xlink="http://www.w3.org/1999/xlink" width="200" height="200"><path d="M512.49 960.22c-60.5 0-119.19-11.85-174.46-35.23-53.37-22.57-101.3-54.89-142.45-96.04-41.15-41.15-73.47-89.08-96.04-142.45-23.38-55.27-35.23-113.96-35.23-174.46 0-60.5 11.85-119.19 35.23-174.46 22.57-53.37 54.89-101.3 96.04-142.45s89.08-73.47 142.45-96.04C393.3 75.72 452 63.87 512.49 63.87S631.68 75.72 686.95 99.1c53.37 22.57 101.3 54.89 142.45 96.04 41.15 41.15 73.47 89.08 96.04 142.45 23.38 55.27 35.23 113.96 35.23 174.46 0 60.49-11.85 119.19-35.23 174.46-22.57 53.37-54.89 101.3-96.04 142.45-41.15 41.15-89.08 73.47-142.45 96.04-55.27 23.37-113.96 35.22-174.46 35.22z m0-858.04c-226 0-409.86 183.86-409.86 409.86 0 225.66 184.2 409.86 409.86 409.86 226 0 409.86-183.86 409.86-409.86 0-225.65-184.2-409.86-409.86-409.86z" p-id="1441"></path><path d="M443.99 624.05l-138.6-138.43c-6.62-6.61-6.62-17.33-0.02-23.95 6.61-6.62 17.33-6.62 23.95-0.02l138.6 138.43c6.62 6.61 6.62 17.33 0.02 23.95-6.61 6.62-17.33 6.62-23.95 0.02z" fill="#B3B3B3" p-id="1442"></path><path d="M454.23 634.27L444 624.02l271.66-270.93c6.62-6.6 17.34-6.59 23.95 0.03 6.6 6.62 6.59 17.34-0.03 23.95L481.65 634.31c-7.58 7.56-19.86 7.54-27.42-0.04z" p-id="1443"></path></svg>