<?xml version="1.0" standalone="no"?><!DOCTYPE svg PUBLIC "-//W3C//DTD SVG 1.1//EN" "http://www.w3.org/Graphics/SVG/1.1/DTD/svg11.dtd"><svg t="1675684576040" class="icon" viewBox="0 0 1024 1024" version="1.1" xmlns="http://www.w3.org/2000/svg" p-id="936" xmlns:xlink="http://www.w3.org/1999/xlink" width="200" height="200"><path d="M510.51 961.63c-60.5 0-119.19-11.85-174.46-35.23-53.37-22.57-101.3-54.89-142.45-96.04s-73.47-89.08-96.04-142.45c-23.38-55.27-35.23-113.96-35.23-174.46 0-60.5 11.85-119.19 35.23-174.46 22.57-53.37 54.89-101.3 96.04-142.45s89.08-73.47 142.45-96.04c55.27-23.38 113.96-35.23 174.46-35.23S629.7 77.13 684.97 100.5c53.37 22.57 101.3 54.89 142.45 96.04s73.47 89.08 96.04 142.45c23.38 55.27 35.23 113.96 35.23 174.46 0 60.49-11.85 119.19-35.23 174.46-22.57 53.37-54.89 101.3-96.04 142.45s-89.08 73.47-142.45 96.04C629.7 949.78 571 961.63 510.51 961.63z m0-858.04c-226 0-409.86 183.86-409.86 409.86 0 225.66 184.2 409.86 409.86 409.86 226 0 409.86-183.86 409.86-409.86 0-225.65-184.2-409.86-409.86-409.86z" p-id="937" fill="#985325"></path><path d="M507.63 383.98c-18.77 0-32.8 5.21-42.09 15.61-7.27 8.14-14.4 20.9-17.48 36.44-1.57 7.93-8.63 13.59-16.72 13.59H400.6c-10.08 0-17.93-8.68-17.01-18.72 2.86-31.07 11.05-57.01 30.25-75.58 22.94-22.17 54.21-33.27 93.78-33.27 39.75 0 71.31 9.98 94.68 29.94 23.37 19.96 35.06 46.92 35.06 80.86 0 18.08-5.42 35.1-16.25 51.05-10.83 15.95-28.88 32.39-54.12 51.33-9.9 7.51-16.76 16.57-20.6 25.18-2.44 5.48-4.81 12.05-6.08 19.71-1.36 8.21-8.51 14.2-16.83 14.2h-30.99c-9.76 0-17.5-8.17-17.07-17.92 0.72-16.39 3.5-30.72 9.95-42.99 8.7-16.54 23.8-31.33 45.29-46.34 10.24-7.17 17.48-15.75 21.75-23.77 4.26-8.02 6.4-18.17 6.4-30.45 0-15.01-4.61-26.95-13.82-35.82-9.22-8.7-21.67-13.05-37.36-13.05z" p-id="938" fill="#985325"></path><path d="M486.07 631.43h42.6c9.44 0 17.08 7.65 17.08 17.08v39.01c0 9.44-7.65 17.08-17.08 17.08h-42.6c-9.44 0-17.08-7.65-17.08-17.08v-39.01c0-9.43 7.65-17.08 17.08-17.08z" fill="#985325" p-id="939"></path></svg>